<svg xmlns="http://www.w3.org/2000/svg" xmlns:xlink="http://www.w3.org/1999/xlink" width="400" zoomAndPan="magnify" viewBox="0 0 300 149.999998" height="200" preserveAspectRatio="xMidYMid meet" version="1.0"><defs><g/><clipPath id="c2b317618d"><rect x="0" width="36" y="0" height="51"/></clipPath><clipPath id="e8d618fd6e"><rect x="0" width="151" y="0" height="38"/></clipPath><clipPath id="1e919430b8"><rect x="0" width="123" y="0" height="20"/></clipPath></defs><g transform="matrix(1, 0, 0, 1, 0, 45)"><g clip-path="url(#c2b317618d)"><g fill="#ffc400" fill-opacity="1"><g transform="translate(12.534453, 40.700181)"><g><path d="M 1.59375 6.703125 C 1.664062 6.347656 1.742188 5.832031 1.828125 5.15625 C 1.921875 4.476562 2.015625 3.691406 2.109375 2.796875 C 2.210938 1.898438 2.3125 0.9375 2.40625 -0.09375 C 2.507812 -1.132812 2.613281 -2.191406 2.71875 -3.265625 C 2.820312 -4.347656 2.914062 -5.414062 3 -6.46875 C 3.09375 -7.519531 3.179688 -8.5 3.265625 -9.40625 C 3.359375 -10.3125 3.429688 -11.125 3.484375 -11.84375 C 3.546875 -12.570312 3.59375 -13.132812 3.625 -13.53125 C 3.664062 -14.050781 3.71875 -14.695312 3.78125 -15.46875 C 3.84375 -16.25 3.90625 -17.101562 3.96875 -18.03125 C 4.039062 -18.957031 4.113281 -19.929688 4.1875 -20.953125 C 4.257812 -21.984375 4.328125 -23.015625 4.390625 -24.046875 C 4.460938 -25.085938 4.53125 -26.113281 4.59375 -27.125 C 4.65625 -28.132812 4.710938 -29.070312 4.765625 -29.9375 C 4.816406 -30.8125 4.859375 -31.59375 4.890625 -32.28125 C 4.929688 -32.976562 4.941406 -33.535156 4.921875 -33.953125 C 5.015625 -33.960938 5.140625 -33.972656 5.296875 -33.984375 C 5.453125 -33.992188 5.617188 -34 5.796875 -34 C 5.972656 -34.007812 6.144531 -34.007812 6.3125 -34 C 6.488281 -33.988281 6.628906 -33.984375 6.734375 -33.984375 C 6.828125 -33.960938 6.953125 -33.941406 7.109375 -33.921875 C 7.265625 -33.910156 7.429688 -33.890625 7.609375 -33.859375 C 7.785156 -33.835938 7.953125 -33.8125 8.109375 -33.78125 C 8.265625 -33.75 8.394531 -33.707031 8.5 -33.65625 C 8.425781 -33.269531 8.347656 -32.722656 8.265625 -32.015625 C 8.191406 -31.304688 8.101562 -30.5 8 -29.59375 C 7.90625 -28.6875 7.804688 -27.710938 7.703125 -26.671875 C 7.597656 -25.640625 7.492188 -24.585938 7.390625 -23.515625 C 7.296875 -22.441406 7.195312 -21.382812 7.09375 -20.34375 C 7 -19.300781 6.910156 -18.328125 6.828125 -17.421875 C 6.753906 -16.515625 6.6875 -15.703125 6.625 -14.984375 C 6.5625 -14.273438 6.507812 -13.71875 6.46875 -13.3125 C 6.445312 -12.851562 6.398438 -12.257812 6.328125 -11.53125 C 6.265625 -10.800781 6.195312 -9.972656 6.125 -9.046875 C 6.0625 -8.128906 5.992188 -7.148438 5.921875 -6.109375 C 5.847656 -5.066406 5.773438 -4.007812 5.703125 -2.9375 C 5.640625 -1.863281 5.570312 -0.816406 5.5 0.203125 C 5.4375 1.222656 5.378906 2.175781 5.328125 3.0625 C 5.273438 3.957031 5.234375 4.742188 5.203125 5.421875 C 5.171875 6.097656 5.160156 6.617188 5.171875 6.984375 C 4.585938 7.054688 3.992188 7.070312 3.390625 7.03125 C 2.785156 7 2.1875 6.890625 1.59375 6.703125 Z M 1.59375 6.703125 "/></g></g></g></g></g><g transform="matrix(1, 0, 0, 1, 22, 54)"><g clip-path="url(#e8d618fd6e)"><g fill="#ffffff" fill-opacity="1"><g transform="translate(0.838178, 30.493506)"><g><path d="M 20.296875 0 L 2.734375 0 L 2.734375 -24.484375 L 20.671875 -24.484375 C 23.859375 -24.484375 26.484375 -24.335938 28.546875 -24.046875 C 30.609375 -23.753906 32.195312 -23.296875 33.3125 -22.671875 C 34.425781 -22.054688 35.179688 -21.269531 35.578125 -20.3125 C 35.984375 -19.363281 36.1875 -18.222656 36.1875 -16.890625 C 36.144531 -15.835938 35.851562 -14.96875 35.3125 -14.28125 C 34.769531 -13.59375 34.140625 -13.082031 33.421875 -12.75 C 32.703125 -12.414062 32.066406 -12.25 31.515625 -12.25 C 32.054688 -12.25 32.679688 -12.140625 33.390625 -11.921875 C 34.109375 -11.710938 34.804688 -11.410156 35.484375 -11.015625 C 36.160156 -10.617188 36.722656 -10.132812 37.171875 -9.5625 C 37.628906 -8.988281 37.859375 -8.335938 37.859375 -7.609375 C 37.859375 -6.660156 37.742188 -5.785156 37.515625 -4.984375 C 37.296875 -4.191406 36.851562 -3.488281 36.1875 -2.875 C 35.519531 -2.257812 34.535156 -1.738281 33.234375 -1.3125 C 31.941406 -0.882812 30.242188 -0.554688 28.140625 -0.328125 C 26.046875 -0.109375 23.429688 0 20.296875 0 Z M 19.71875 -14.34375 C 21.21875 -14.34375 22.378906 -14.414062 23.203125 -14.5625 C 24.035156 -14.707031 24.609375 -14.929688 24.921875 -15.234375 C 25.242188 -15.535156 25.40625 -15.921875 25.40625 -16.390625 C 25.40625 -16.867188 25.242188 -17.257812 24.921875 -17.5625 C 24.609375 -17.863281 24.035156 -18.082031 23.203125 -18.21875 C 22.378906 -18.363281 21.21875 -18.4375 19.71875 -18.4375 L 13.015625 -18.4375 L 13.015625 -14.34375 Z M 19.71875 -6.046875 C 21.257812 -6.046875 22.503906 -6.082031 23.453125 -6.15625 C 24.410156 -6.238281 25.113281 -6.421875 25.5625 -6.703125 C 26.007812 -6.992188 26.234375 -7.457031 26.234375 -8.09375 C 26.234375 -8.726562 26.007812 -9.191406 25.5625 -9.484375 C 25.113281 -9.773438 24.410156 -9.957031 23.453125 -10.03125 C 22.503906 -10.101562 21.257812 -10.140625 19.71875 -10.140625 L 13.015625 -10.140625 L 13.015625 -6.046875 Z M 19.71875 -6.046875 "/></g></g></g><g fill="#ffffff" fill-opacity="1"><g transform="translate(38.00018, 30.493506)"><g><path d="M 41.15625 0 L 30.734375 0 L 28.421875 -4.015625 L 12.984375 -4.015625 L 10.671875 0 L 0.25 0 L 15.9375 -24.484375 L 25.46875 -24.484375 Z M 24.96875 -10.078125 L 20.71875 -17.5 L 16.4375 -10.078125 Z M 24.96875 -10.078125 "/></g></g></g><g fill="#ffffff" fill-opacity="1"><g transform="translate(76.664304, 30.493506)"><g><path d="M 16.71875 0.53125 C 10.738281 0.53125 6.53125 -0.707031 4.09375 -3.1875 C 2.050781 -5.269531 1.03125 -8.28125 1.03125 -12.21875 L 11.296875 -12.21875 C 11.296875 -10.519531 11.585938 -9.171875 12.171875 -8.171875 C 13.003906 -6.753906 14.519531 -6.046875 16.71875 -6.046875 C 18.9375 -6.046875 20.457031 -6.753906 21.28125 -8.171875 C 21.851562 -9.203125 22.140625 -10.550781 22.140625 -12.21875 L 22.140625 -24.484375 L 32.421875 -24.484375 L 32.421875 -12.09375 C 32.421875 -8.238281 31.40625 -5.269531 29.375 -3.1875 C 26.925781 -0.707031 22.707031 0.53125 16.71875 0.53125 Z M 16.71875 0.53125 "/></g></g></g><g fill="#ffffff" fill-opacity="1"><g transform="translate(107.885741, 30.493506)"><g><path d="M 41.15625 0 L 30.734375 0 L 28.421875 -4.015625 L 12.984375 -4.015625 L 10.671875 0 L 0.25 0 L 15.9375 -24.484375 L 25.46875 -24.484375 Z M 24.96875 -10.078125 L 20.71875 -17.5 L 16.4375 -10.078125 Z M 24.96875 -10.078125 "/></g></g></g></g></g><g transform="matrix(1, 0, 0, 1, 167, 57)"><g clip-path="url(#1e919430b8)"><g fill="#ffc400" fill-opacity="1"><g transform="translate(0.779322, 15.323545)"><g><path d="M 6.640625 -11.546875 C 8.316406 -11.546875 9.644531 -11.125 10.625 -10.28125 C 11.601562 -9.445312 12.09375 -8.25 12.09375 -6.6875 L 8.609375 -6.6875 C 8.609375 -7.34375 8.4375 -7.863281 8.09375 -8.25 C 7.75 -8.632812 7.253906 -8.828125 6.609375 -8.828125 C 5.878906 -8.828125 5.335938 -8.59375 4.984375 -8.125 C 4.640625 -7.664062 4.46875 -7.023438 4.46875 -6.203125 L 4.46875 -5.140625 C 4.46875 -4.328125 4.640625 -3.6875 4.984375 -3.21875 C 5.335938 -2.757812 5.867188 -2.53125 6.578125 -2.53125 C 7.285156 -2.53125 7.820312 -2.707031 8.1875 -3.0625 C 8.550781 -3.425781 8.734375 -3.941406 8.734375 -4.609375 L 12.09375 -4.609375 C 12.09375 -3.054688 11.613281 -1.863281 10.65625 -1.03125 C 9.707031 -0.207031 8.367188 0.203125 6.640625 0.203125 C 4.703125 0.203125 3.234375 -0.289062 2.234375 -1.28125 C 1.242188 -2.269531 0.75 -3.734375 0.75 -5.671875 C 0.75 -7.609375 1.242188 -9.070312 2.234375 -10.0625 C 3.234375 -11.050781 4.703125 -11.546875 6.640625 -11.546875 Z M 6.640625 -11.546875 "/></g></g></g><g fill="#ffc400" fill-opacity="1"><g transform="translate(13.612624, 15.323545)"><g/></g></g><g fill="#ffc400" fill-opacity="1"><g transform="translate(19.105545, 15.323545)"><g><path d="M 12.53125 -4.578125 C 12.53125 -3.023438 12.039062 -1.835938 11.0625 -1.015625 C 10.082031 -0.203125 8.6875 0.203125 6.875 0.203125 C 5.070312 0.203125 3.675781 -0.203125 2.6875 -1.015625 C 1.707031 -1.835938 1.21875 -3.023438 1.21875 -4.578125 L 1.21875 -11.359375 L 4.875 -11.359375 L 4.875 -4.625 C 4.875 -3.976562 5.039062 -3.46875 5.375 -3.09375 C 5.71875 -2.71875 6.210938 -2.53125 6.859375 -2.53125 C 7.515625 -2.53125 8.015625 -2.71875 8.359375 -3.09375 C 8.703125 -3.476562 8.875 -3.988281 8.875 -4.625 L 8.875 -11.359375 L 12.53125 -11.359375 Z M 12.53125 -4.578125 "/></g></g></g><g fill="#ffc400" fill-opacity="1"><g transform="translate(32.846087, 15.323545)"><g/></g></g><g fill="#ffc400" fill-opacity="1"><g transform="translate(38.339009, 15.323545)"><g><path d="M 12 -7.875 C 12 -7.175781 11.8125 -6.546875 11.4375 -5.984375 C 11.0625 -5.421875 10.515625 -5.007812 9.796875 -4.75 L 12.328125 0 L 8.234375 0 L 6.21875 -4.140625 L 4.875 -4.140625 L 4.875 0 L 1.21875 0 L 1.21875 -11.359375 L 8.171875 -11.359375 C 8.984375 -11.359375 9.675781 -11.195312 10.25 -10.875 C 10.832031 -10.5625 11.269531 -10.140625 11.5625 -9.609375 C 11.851562 -9.078125 12 -8.5 12 -7.875 Z M 8.28125 -7.71875 C 8.28125 -8.019531 8.179688 -8.269531 7.984375 -8.46875 C 7.785156 -8.664062 7.546875 -8.765625 7.265625 -8.765625 L 4.875 -8.765625 L 4.875 -6.671875 L 7.265625 -6.671875 C 7.546875 -6.671875 7.785156 -6.769531 7.984375 -6.96875 C 8.179688 -7.175781 8.28125 -7.425781 8.28125 -7.71875 Z M 8.28125 -7.71875 "/></g></g></g><g fill="#ffc400" fill-opacity="1"><g transform="translate(51.172311, 15.323545)"><g/></g></g><g fill="#ffc400" fill-opacity="1"><g transform="translate(56.665232, 15.323545)"><g><path d="M 8.828125 0 L 8.34375 -1.59375 L 4.375 -1.59375 L 3.890625 0 L 0.171875 0 L 4.3125 -11.359375 L 8.546875 -11.359375 L 12.6875 0 Z M 5.125 -4.140625 L 7.59375 -4.140625 L 6.40625 -8.1875 L 6.34375 -8.1875 Z M 5.125 -4.140625 "/></g></g></g><g fill="#ffc400" fill-opacity="1"><g transform="translate(69.498534, 15.323545)"><g/></g></g><g fill="#ffc400" fill-opacity="1"><g transform="translate(74.991456, 15.323545)"><g><path d="M 7.75 -8.453125 L 7.75 0 L 4.109375 0 L 4.109375 -8.453125 L 0.375 -8.453125 L 0.375 -11.359375 L 11.46875 -11.359375 L 11.46875 -8.453125 Z M 7.75 -8.453125 "/></g></g></g><g fill="#ffc400" fill-opacity="1"><g transform="translate(86.901024, 15.323545)"><g/></g></g><g fill="#ffc400" fill-opacity="1"><g transform="translate(92.393946, 15.323545)"><g><path d="M 1.21875 -11.359375 L 11.03125 -11.359375 L 11.03125 -8.625 L 4.875 -8.625 L 4.875 -7.0625 L 10.140625 -7.0625 L 10.140625 -4.453125 L 4.875 -4.453125 L 4.875 -2.71875 L 11.15625 -2.71875 L 11.15625 0 L 1.21875 0 Z M 1.21875 -11.359375 "/></g></g></g><g fill="#ffc400" fill-opacity="1"><g transform="translate(104.303514, 15.323545)"><g/></g></g><g fill="#ffc400" fill-opacity="1"><g transform="translate(109.796435, 15.323545)"><g><path d="M 6.140625 -11.359375 C 10.109375 -11.359375 12.09375 -9.460938 12.09375 -5.671875 C 12.09375 -1.890625 10.109375 0 6.140625 0 L 1.21875 0 L 1.21875 -11.359375 Z M 4.875 -2.71875 L 6.078125 -2.71875 C 7.597656 -2.71875 8.359375 -3.539062 8.359375 -5.1875 L 8.359375 -6.171875 C 8.359375 -7.804688 7.597656 -8.625 6.078125 -8.625 L 4.875 -8.625 Z M 4.875 -2.71875 "/></g></g></g></g></g><g fill="#d9d9d9" fill-opacity="1"><g transform="translate(194.767197, 82.379565)"><g><path d="M 0.890625 0 L 0.890625 -7.296875 L 6.265625 -7.296875 L 6.265625 -6.515625 L 1.71875 -6.515625 L 1.71875 -4.0625 L 5.78125 -4.0625 L 5.78125 -3.25 L 1.71875 -3.25 L 1.71875 -0.796875 L 6.265625 -0.796875 L 6.265625 0 Z M 0.890625 0 "/></g></g></g><g fill="#d9d9d9" fill-opacity="1"><g transform="translate(201.471786, 82.379565)"><g/></g></g><g fill="#d9d9d9" fill-opacity="1"><g transform="translate(203.820595, 82.379565)"><g><path d="M -0.03125 0 L 2.875 -3.765625 L 0.171875 -7.296875 L 1.21875 -7.296875 L 3.375 -4.4375 L 5.546875 -7.296875 L 6.59375 -7.296875 L 3.890625 -3.765625 L 6.796875 0 L 5.75 0 L 3.375 -3.140625 L 1.015625 0 Z M -0.03125 0 "/></g></g></g><g fill="#d9d9d9" fill-opacity="1"><g transform="translate(210.58031, 82.379565)"><g/></g></g><g fill="#d9d9d9" fill-opacity="1"><g transform="translate(212.929118, 82.379565)"><g><path d="M 0.890625 0 L 0.890625 -7.296875 L 4.1875 -7.296875 C 4.957031 -7.296875 5.566406 -7.082031 6.015625 -6.65625 C 6.472656 -6.238281 6.703125 -5.671875 6.703125 -4.953125 C 6.703125 -4.234375 6.472656 -3.660156 6.015625 -3.234375 C 5.566406 -2.816406 4.957031 -2.609375 4.1875 -2.609375 L 1.71875 -2.609375 L 1.71875 0 Z M 1.71875 -3.375 L 4.125 -3.375 C 4.695312 -3.375 5.128906 -3.515625 5.421875 -3.796875 C 5.722656 -4.078125 5.875 -4.460938 5.875 -4.953125 C 5.875 -5.441406 5.722656 -5.820312 5.421875 -6.09375 C 5.128906 -6.375 4.695312 -6.515625 4.125 -6.515625 L 1.71875 -6.515625 Z M 1.71875 -3.375 "/></g></g></g><g fill="#d9d9d9" fill-opacity="1"><g transform="translate(219.854247, 82.379565)"><g/></g></g><g fill="#d9d9d9" fill-opacity="1"><g transform="translate(222.203055, 82.379565)"><g><path d="M 0.890625 0 L 0.890625 -7.296875 L 6.265625 -7.296875 L 6.265625 -6.515625 L 1.71875 -6.515625 L 1.71875 -4.0625 L 5.78125 -4.0625 L 5.78125 -3.25 L 1.71875 -3.25 L 1.71875 -0.796875 L 6.265625 -0.796875 L 6.265625 0 Z M 0.890625 0 "/></g></g></g><g fill="#d9d9d9" fill-opacity="1"><g transform="translate(228.907644, 82.379565)"><g/></g></g><g fill="#d9d9d9" fill-opacity="1"><g transform="translate(231.256453, 82.379565)"><g><path d="M 0.890625 0 L 0.890625 -7.296875 L 3.96875 -7.296875 C 4.40625 -7.296875 4.820312 -7.210938 5.21875 -7.046875 C 5.625 -6.890625 5.984375 -6.648438 6.296875 -6.328125 C 6.609375 -6.015625 6.859375 -5.632812 7.046875 -5.1875 C 7.234375 -4.738281 7.328125 -4.226562 7.328125 -3.65625 C 7.328125 -3.082031 7.234375 -2.566406 7.046875 -2.109375 C 6.859375 -1.660156 6.609375 -1.28125 6.296875 -0.96875 C 5.984375 -0.65625 5.625 -0.414062 5.21875 -0.25 C 4.820312 -0.0820312 4.40625 0 3.96875 0 Z M 1.71875 -0.78125 L 3.9375 -0.78125 C 4.457031 -0.78125 4.910156 -0.910156 5.296875 -1.171875 C 5.679688 -1.441406 5.976562 -1.789062 6.1875 -2.21875 C 6.394531 -2.65625 6.5 -3.132812 6.5 -3.65625 C 6.5 -4.175781 6.394531 -4.648438 6.1875 -5.078125 C 5.976562 -5.515625 5.679688 -5.863281 5.296875 -6.125 C 4.910156 -6.382812 4.457031 -6.515625 3.9375 -6.515625 L 1.71875 -6.515625 Z M 1.71875 -0.78125 "/></g></g></g><g fill="#d9d9d9" fill-opacity="1"><g transform="translate(239.008623, 82.379565)"><g/></g></g><g fill="#d9d9d9" fill-opacity="1"><g transform="translate(241.357431, 82.379565)"><g><path d="M 0.890625 0 L 0.890625 -7.296875 L 1.71875 -7.296875 L 1.71875 0 Z M 0.890625 0 "/></g></g></g><g fill="#d9d9d9" fill-opacity="1"><g transform="translate(243.970895, 82.379565)"><g/></g></g><g fill="#d9d9d9" fill-opacity="1"><g transform="translate(246.319703, 82.379565)"><g><path d="M 2.703125 0 L 2.703125 -6.515625 L 0.15625 -6.515625 L 0.15625 -7.296875 L 6.078125 -7.296875 L 6.078125 -6.515625 L 3.53125 -6.515625 L 3.53125 0 Z M 2.703125 0 "/></g></g></g><g fill="#d9d9d9" fill-opacity="1"><g transform="translate(252.550118, 82.379565)"><g/></g></g><g fill="#d9d9d9" fill-opacity="1"><g transform="translate(254.898926, 82.379565)"><g><path d="M 0.890625 0 L 0.890625 -7.296875 L 1.71875 -7.296875 L 1.71875 0 Z M 0.890625 0 "/></g></g></g><g fill="#d9d9d9" fill-opacity="1"><g transform="translate(257.512391, 82.379565)"><g/></g></g><g fill="#d9d9d9" fill-opacity="1"><g transform="translate(259.861199, 82.379565)"><g><path d="M 4.140625 0.09375 C 3.585938 0.09375 3.082031 0 2.625 -0.1875 C 2.164062 -0.382812 1.769531 -0.65625 1.4375 -1 C 1.113281 -1.34375 0.863281 -1.738281 0.6875 -2.1875 C 0.519531 -2.644531 0.4375 -3.132812 0.4375 -3.65625 C 0.4375 -4.175781 0.519531 -4.660156 0.6875 -5.109375 C 0.863281 -5.554688 1.113281 -5.953125 1.4375 -6.296875 C 1.769531 -6.640625 2.164062 -6.90625 2.625 -7.09375 C 3.082031 -7.289062 3.585938 -7.390625 4.140625 -7.390625 C 4.691406 -7.390625 5.191406 -7.289062 5.640625 -7.09375 C 6.097656 -6.90625 6.488281 -6.640625 6.8125 -6.296875 C 7.144531 -5.953125 7.398438 -5.554688 7.578125 -5.109375 C 7.753906 -4.660156 7.84375 -4.175781 7.84375 -3.65625 C 7.84375 -3.132812 7.753906 -2.644531 7.578125 -2.1875 C 7.398438 -1.738281 7.144531 -1.34375 6.8125 -1 C 6.488281 -0.65625 6.097656 -0.382812 5.640625 -0.1875 C 5.191406 0 4.691406 0.09375 4.140625 0.09375 Z M 4.140625 -0.71875 C 4.734375 -0.71875 5.242188 -0.847656 5.671875 -1.109375 C 6.109375 -1.367188 6.441406 -1.71875 6.671875 -2.15625 C 6.898438 -2.601562 7.015625 -3.101562 7.015625 -3.65625 C 7.015625 -4.207031 6.898438 -4.703125 6.671875 -5.140625 C 6.441406 -5.578125 6.109375 -5.925781 5.671875 -6.1875 C 5.242188 -6.445312 4.734375 -6.578125 4.140625 -6.578125 C 3.546875 -6.578125 3.03125 -6.445312 2.59375 -6.1875 C 2.164062 -5.925781 1.832031 -5.578125 1.59375 -5.140625 C 1.363281 -4.703125 1.25 -4.207031 1.25 -3.65625 C 1.25 -3.101562 1.363281 -2.601562 1.59375 -2.15625 C 1.832031 -1.71875 2.164062 -1.367188 2.59375 -1.109375 C 3.03125 -0.847656 3.546875 -0.71875 4.140625 -0.71875 Z M 4.140625 -0.71875 "/></g></g></g><g fill="#d9d9d9" fill-opacity="1"><g transform="translate(268.13166, 82.379565)"><g/></g></g><g fill="#d9d9d9" fill-opacity="1"><g transform="translate(270.480468, 82.379565)"><g><path d="M 0.890625 0 L 0.890625 -7.296875 L 1.859375 -7.296875 L 6.359375 -1.15625 L 6.359375 -7.296875 L 7.1875 -7.296875 L 7.1875 0 L 6.234375 0 L 1.71875 -6.171875 L 1.71875 0 Z M 0.890625 0 "/></g></g></g><g fill="#d9d9d9" fill-opacity="1"><g transform="translate(278.563464, 82.379565)"><g/></g></g><g fill="#d9d9d9" fill-opacity="1"><g transform="translate(280.912273, 82.379565)"><g><path d="M 3.515625 0.09375 C 2.785156 0.09375 2.195312 -0.00390625 1.75 -0.203125 C 1.300781 -0.398438 0.960938 -0.671875 0.734375 -1.015625 C 0.515625 -1.359375 0.390625 -1.75 0.359375 -2.1875 L 1.21875 -2.1875 C 1.238281 -1.832031 1.351562 -1.546875 1.5625 -1.328125 C 1.78125 -1.109375 2.0625 -0.945312 2.40625 -0.84375 C 2.757812 -0.738281 3.144531 -0.6875 3.5625 -0.6875 C 4.175781 -0.6875 4.664062 -0.796875 5.03125 -1.015625 C 5.394531 -1.234375 5.578125 -1.554688 5.578125 -1.984375 C 5.578125 -2.242188 5.484375 -2.453125 5.296875 -2.609375 C 5.117188 -2.765625 4.878906 -2.894531 4.578125 -3 C 4.285156 -3.101562 3.960938 -3.195312 3.609375 -3.28125 C 3.253906 -3.363281 2.894531 -3.453125 2.53125 -3.546875 C 2.175781 -3.648438 1.847656 -3.773438 1.546875 -3.921875 C 1.253906 -4.066406 1.019531 -4.253906 0.84375 -4.484375 C 0.664062 -4.710938 0.578125 -5.007812 0.578125 -5.375 C 0.578125 -5.96875 0.804688 -6.453125 1.265625 -6.828125 C 1.722656 -7.203125 2.410156 -7.390625 3.328125 -7.390625 C 3.972656 -7.390625 4.503906 -7.289062 4.921875 -7.09375 C 5.335938 -6.90625 5.648438 -6.648438 5.859375 -6.328125 C 6.066406 -6.015625 6.179688 -5.675781 6.203125 -5.3125 L 5.359375 -5.3125 C 5.316406 -5.675781 5.132812 -5.984375 4.8125 -6.234375 C 4.488281 -6.492188 3.992188 -6.625 3.328125 -6.625 C 2.910156 -6.625 2.570312 -6.582031 2.3125 -6.5 C 2.0625 -6.414062 1.863281 -6.304688 1.71875 -6.171875 C 1.582031 -6.046875 1.488281 -5.914062 1.4375 -5.78125 C 1.394531 -5.644531 1.375 -5.515625 1.375 -5.390625 C 1.375 -5.140625 1.460938 -4.9375 1.640625 -4.78125 C 1.828125 -4.632812 2.066406 -4.507812 2.359375 -4.40625 C 2.660156 -4.3125 2.988281 -4.222656 3.34375 -4.140625 C 3.707031 -4.066406 4.066406 -3.976562 4.421875 -3.875 C 4.785156 -3.78125 5.113281 -3.65625 5.40625 -3.5 C 5.707031 -3.351562 5.945312 -3.160156 6.125 -2.921875 C 6.300781 -2.679688 6.390625 -2.378906 6.390625 -2.015625 C 6.390625 -1.335938 6.132812 -0.816406 5.625 -0.453125 C 5.113281 -0.0859375 4.410156 0.09375 3.515625 0.09375 Z M 3.515625 0.09375 "/></g></g></g></svg>